<svg width="30" height="38" viewBox="0 0 30 38" fill="none" xmlns="http://www.w3.org/2000/svg">
<path d="M0.862504 24.2542C0.862504 24.2542 10.2479 33.6334 13.9021 37.2854C14.2063 37.5917 14.6063 37.7438 15.0063 37.7438C15.4063 37.7438 15.8063 37.5917 16.1104 37.2854C19.7646 33.6354 29.1292 24.2771 29.1292 24.2771C29.4292 23.9771 29.5792 23.5813 29.5813 23.1875C29.5813 22.7854 29.4271 22.3833 29.1208 22.075C28.5104 21.4646 27.525 21.4625 26.9188 22.0667L16.5688 32.4167V1.80835C16.5688 0.94585 15.8688 0.24585 15.0063 0.24585C14.1438 0.24585 13.4438 0.94585 13.4438 1.80835V32.4167L3.07084 22.0458C2.46875 21.4438 1.48542 21.4479 0.875003 22.0583C0.56667 22.3667 0.412504 22.7688 0.414587 23.1708C0.414587 23.5646 0.562504 23.9563 0.862504 24.2542Z" fill="#7596EA"/>
</svg>
