<svg width="80" height="80" viewBox="0 0 80 80" fill="none" xmlns="http://www.w3.org/2000/svg">
<path d="M75.6 0H4.4C3.23305 0 2.11389 0.463571 1.28873 1.28873C0.463571 2.11389 0 3.23305 0 4.4V75.6C0 76.767 0.463571 77.8861 1.28873 78.7113C2.11389 79.5364 3.23305 80 4.4 80H42.72V49H32.32V37H42.72V28C42.5046 25.887 42.754 23.7525 43.4509 21.7461C44.1477 19.7398 45.2751 17.9102 46.7539 16.3856C48.2327 14.8611 50.0271 13.6786 52.0113 12.921C53.9955 12.1633 56.1214 11.849 58.24 12C61.3533 11.9808 64.4651 12.1411 67.56 12.48V23.28H61.2C56.16 23.28 55.2 25.68 55.2 29.16V36.88H67.2L65.64 48.88H55.2V80H75.6C76.1778 80 76.75 79.8862 77.2838 79.6651C77.8176 79.4439 78.3027 79.1199 78.7113 78.7113C79.1199 78.3027 79.4439 77.8176 79.6651 77.2838C79.8862 76.75 80 76.1778 80 75.6V4.4C80 3.82218 79.8862 3.25003 79.6651 2.71619C79.4439 2.18236 79.1199 1.69731 78.7113 1.28873C78.3027 0.880153 77.8176 0.556051 77.2838 0.33493C76.75 0.11381 76.1778 0 75.6 0Z" fill="white"/>
</svg>
