<svg width="80" height="80" viewBox="0 0 80 80" fill="none" xmlns="http://www.w3.org/2000/svg">
<path d="M40 30.08C38.038 30.08 36.1201 30.6618 34.4887 31.7518C32.8574 32.8418 31.5859 34.3911 30.8351 36.2038C30.0843 38.0164 29.8878 40.011 30.2706 41.9353C30.6534 43.8596 31.5982 45.6272 32.9855 47.0145C34.3728 48.4018 36.1404 49.3466 38.0647 49.7294C39.989 50.1122 41.9836 49.9157 43.7962 49.1649C45.6089 48.4141 47.1582 47.1426 48.2482 45.5113C49.3382 43.8799 49.92 41.962 49.92 40C49.92 38.6973 49.6634 37.4073 49.1649 36.2038C48.6664 35.0002 47.9357 33.9067 47.0145 32.9855C46.0933 32.0643 44.9998 31.3336 43.7962 30.8351C42.5927 30.3366 41.3027 30.08 40 30.08ZM79.72 20.28C79.699 17.191 79.1301 14.1303 78.04 11.24C77.2371 9.12504 75.9949 7.20438 74.3953 5.60474C72.7956 4.00511 70.875 2.76287 68.76 1.96C65.8697 0.869855 62.809 0.301044 59.72 0.28C54.56 -2.68221e-07 53.04 0 40 0C26.96 0 25.44 -2.68221e-07 20.28 0.28C17.191 0.301044 14.1303 0.869855 11.24 1.96C9.12504 2.76287 7.20438 4.00511 5.60474 5.60474C4.00511 7.20438 2.76287 9.12504 1.96 11.24C0.869855 14.1303 0.301044 17.191 0.28 20.28C-2.68221e-07 25.44 0 26.96 0 40C0 53.04 -2.68221e-07 54.56 0.28 59.72C0.323056 62.8198 0.891097 65.89 1.96 68.8C2.75931 70.9053 4.00051 72.8148 5.6 74.4C7.19277 76.0092 9.11756 77.2515 11.24 78.04C14.1303 79.1301 17.191 79.699 20.28 79.72C25.44 80 26.96 80 40 80C53.04 80 54.56 80 59.72 79.72C62.809 79.699 65.8697 79.1301 68.76 78.04C70.8824 77.2515 72.8072 76.0092 74.4 74.4C75.9995 72.8148 77.2407 70.9053 78.04 68.8C79.1291 65.8955 79.6978 62.8219 79.72 59.72C80 54.56 80 53.04 80 40C80 26.96 80 25.44 79.72 20.28ZM69.56 52.28C69.4316 54.7484 68.9048 57.1798 68 59.48C67.2235 61.3987 66.0691 63.1418 64.6054 64.6054C63.1418 66.0691 61.3987 67.2235 59.48 68C57.1581 68.8544 54.7131 69.3272 52.24 69.4C49.08 69.4 48.24 69.4 40 69.4C31.76 69.4 30.92 69.4 27.76 69.4C25.2869 69.3272 22.842 68.8544 20.52 68C18.5364 67.2629 16.7451 66.0869 15.28 64.56C13.8307 63.125 12.7114 61.3915 12 59.48C11.1422 57.1605 10.6824 54.7127 10.64 52.24C10.64 49.08 10.64 48.24 10.64 40C10.64 31.76 10.64 30.92 10.64 27.76C10.6824 25.2873 11.1422 22.8395 12 20.52C12.7371 18.5364 13.9131 16.7451 15.44 15.28C16.8813 13.8385 18.6131 12.7204 20.52 12C22.842 11.1456 25.2869 10.6728 27.76 10.6H40C40 10.6 49.08 10.6 52.24 10.6C54.7131 10.6728 57.1581 11.1456 59.48 12C61.4636 12.7371 63.2549 13.9131 64.72 15.44C66.1693 16.875 67.2886 18.6085 68 20.52C68.8544 22.842 69.3272 25.2869 69.4 27.76V40C69.4 40 69.68 49.08 69.56 52.24V52.28ZM63.16 22.52C62.6838 21.2279 61.9329 20.0546 60.9591 19.0809C59.9854 18.1071 58.8121 17.3563 57.52 16.88C55.7459 16.265 53.8774 15.9672 52 16C48.88 16 48 16 40 16C32 16 31.12 16 28 16C26.1131 16.0184 24.2443 16.3705 22.48 17.04C21.2077 17.4946 20.0468 18.2148 19.0743 19.1528C18.1019 20.0908 17.3402 21.225 16.84 22.48C16.2591 24.2615 15.9753 26.1264 16 28V40C16 40 16 48.88 16 52C16.0397 53.8848 16.3911 55.75 17.04 57.52C17.5163 58.8121 18.2671 59.9854 19.2409 60.9591C20.2146 61.9329 21.3879 62.6838 22.68 63.16C24.3867 63.7877 26.1826 64.1387 28 64.2H40C40 64.2 48.88 64.2 52 64.2C53.8869 64.1816 55.7557 63.8295 57.52 63.16C58.8121 62.6838 59.9854 61.9329 60.9591 60.9591C61.9329 59.9854 62.6838 58.8121 63.16 57.52C63.8295 55.7557 64.1816 53.8869 64.2 52C64.2 48.88 64.2 48 64.2 40C64.2 32 64.2 31.12 64.2 28C64.2012 26.1112 63.8484 24.2389 63.16 22.48V22.52ZM40 55.28C37.9953 55.28 36.0103 54.8845 34.1586 54.1161C32.307 53.3477 30.6252 52.2216 29.2095 50.8022C27.7938 49.3828 26.6721 47.698 25.9086 45.8444C25.1451 43.9908 24.7547 42.0047 24.76 40C24.76 36.9762 25.6572 34.0204 27.3379 31.5067C29.0187 28.9931 31.4075 27.0347 34.2019 25.8793C36.9963 24.724 40.0706 24.4238 43.0357 25.0166C46.0008 25.6094 48.7234 27.0687 50.8587 29.2096C52.9941 31.3506 54.4462 34.077 55.0313 37.0436C55.6163 40.0103 55.308 43.0838 54.1454 45.8752C52.9827 48.6665 51.018 51.0502 48.5 52.7243C45.9819 54.3985 43.0238 55.2879 40 55.28ZM56 27.72C55.1158 27.6264 54.2975 27.2089 53.7027 26.5479C53.108 25.8869 52.7789 25.0292 52.7789 24.14C52.7789 23.2508 53.108 22.3931 53.7027 21.7321C54.2975 21.0711 55.1158 20.6536 56 20.56C56.8842 20.6536 57.7025 21.0711 58.2973 21.7321C58.892 22.3931 59.2211 23.2508 59.2211 24.14C59.2211 25.0292 58.892 25.8869 58.2973 26.5479C57.7025 27.2089 56.8842 27.6264 56 27.72Z" fill="white"/>
</svg>
