<svg width="80" height="81" viewBox="0 0 80 81" fill="none" xmlns="http://www.w3.org/2000/svg">
<path d="M74.0845 0.000562699H5.91549C5.14921 -0.0100796 4.38833 0.130331 3.67632 0.413777C2.96431 0.697223 2.3151 1.11815 1.76578 1.65252C1.21647 2.18689 0.777793 2.82424 0.474817 3.52817C0.171841 4.23209 0.0104966 4.9888 0 5.75509V74.7289C0.0104966 75.4952 0.171841 76.2519 0.474817 76.9558C0.777793 77.6598 1.21647 78.2971 1.76578 78.8315C2.3151 79.3659 2.96431 79.7868 3.67632 80.0702C4.38833 80.3537 5.14921 80.4941 5.91549 80.4835H74.0845C74.8508 80.4941 75.6117 80.3537 76.3237 80.0702C77.0357 79.7868 77.6849 79.3659 78.2342 78.8315C78.7835 78.2971 79.2222 77.6598 79.5252 76.9558C79.8282 76.2519 79.9895 75.4952 80 74.7289V5.75509C79.9895 4.9888 79.8282 4.23209 79.5252 3.52817C79.2222 2.82424 78.7835 2.18689 78.2342 1.65252C77.6849 1.11815 77.0357 0.697223 76.3237 0.413777C75.6117 0.130331 74.8508 -0.0100796 74.0845 0.000562699ZM24.2656 67.3647H12.1932V31.1474H24.2656V67.3647ZM18.2294 26.077C17.405 26.077 16.5887 25.9146 15.827 25.5992C15.0654 25.2837 14.3733 24.8213 13.7904 24.2383C13.2075 23.6554 12.7451 22.9634 12.4296 22.2017C12.1141 21.4401 11.9517 20.6237 11.9517 19.7994C11.9517 18.975 12.1141 18.1586 12.4296 17.397C12.7451 16.6354 13.2075 15.9433 13.7904 15.3604C14.3733 14.7774 15.0654 14.315 15.827 13.9995C16.5887 13.6841 17.405 13.5217 18.2294 13.5217C19.1135 13.4214 20.0088 13.509 20.8566 13.7788C21.7045 14.0485 22.4859 14.4943 23.1495 15.0869C23.8132 15.6796 24.3442 16.4057 24.7077 17.2178C25.0713 18.0299 25.2592 18.9096 25.2592 19.7994C25.2592 20.6891 25.0713 21.5688 24.7077 22.3809C24.3442 23.193 23.8132 23.9191 23.1495 24.5118C22.4859 25.1044 21.7045 25.5502 20.8566 25.8199C20.0088 26.0897 19.1135 26.1773 18.2294 26.077ZM67.8068 67.3647H55.7344V47.9281C55.7344 43.0589 54.004 39.8798 49.6177 39.8798C48.2602 39.8898 46.9384 40.3156 45.8303 41.0998C44.7223 41.8841 43.8812 42.9892 43.4205 44.2662C43.1056 45.212 42.9692 46.2081 43.0181 47.2038V67.3245H30.9457C30.9457 67.3245 30.9457 34.407 30.9457 31.1072H43.0181V36.2179C44.1148 34.3149 45.7099 32.7471 47.6315 31.6835C49.5532 30.6198 51.7286 30.1006 53.9235 30.1816C61.9718 30.1816 67.8068 35.3728 67.8068 46.5197V67.3647Z" fill="white"/>
</svg>
