<svg width="50" height="50" viewBox="0 0 50 50" fill="none" xmlns="http://www.w3.org/2000/svg">
<g clip-path="url(#clip0_55_1437)">
<path fill-rule="evenodd" clip-rule="evenodd" d="M25 0C38.7979 0 50 11.2021 50 25C50 38.7979 38.7979 50 25 50C11.2021 50 0 38.7979 0 25C0 11.2021 11.2021 0 25 0ZM41.9313 40.4375C41.3438 39.6021 40.3229 39.075 38.5479 38.6667C30.5312 36.7792 30.0125 35.5396 29.4812 34.3771C28.9417 33.2 29.0854 31.8146 29.9083 30.2583C33.5042 23.4729 34.2625 17.7083 32.0479 14.0292C30.6437 11.6979 28.1417 10.4167 25 10.4167C21.8312 10.4167 19.3083 11.7208 17.8979 14.0896C15.6771 17.8167 16.4542 23.5562 20.0833 30.25C20.9208 31.7958 21.075 33.1792 20.5417 34.3625C19.9896 35.5833 19.2687 36.8417 11.4479 38.6667C9.67292 39.075 8.65208 39.6021 8.06667 40.4333C12.2583 45.0313 18.2958 47.9167 25 47.9167C31.7042 47.9167 37.7396 45.0312 41.9313 40.4375ZM43.2854 38.8083C46.1917 34.9667 47.9167 30.1833 47.9167 25C47.9167 12.3521 37.6479 2.08333 25 2.08333C12.3521 2.08333 2.08333 12.3521 2.08333 25C2.08333 30.1812 3.80625 34.9646 6.7125 38.8042C7.56458 37.8625 8.89792 37.1167 10.9812 36.6354C15.2 35.6729 18.0146 34.8937 18.6438 33.5062C18.8979 32.9396 18.7708 32.1979 18.2521 31.2417C14.2583 23.8771 13.4979 17.4062 16.1062 13.0229C17.8833 10.0417 21.1229 8.33333 25 8.33333C28.8437 8.33333 32.0646 10.0167 33.8333 12.9542C36.4396 17.2854 35.7 23.7771 31.75 31.2333C31.2396 32.1979 31.1167 32.9437 31.3771 33.5125C32.0125 34.9042 34.8021 35.675 39.0167 36.6354C41.1 37.1146 42.4333 37.8646 43.2854 38.8083Z" fill="white"/>
</g>
<defs>
<clipPath id="clip0_55_1437">
<rect width="50" height="50" fill="white"/>
</clipPath>
</defs>
</svg>
